<svg xmlns="http://www.w3.org/2000/svg" version="1.1" width="90px" height="90px" style="shape-rendering:geometricPrecision; text-rendering:geometricPrecision; image-rendering:optimizeQuality; fill-rule:evenodd; clip-rule:evenodd" xmlns:xlink="http://www.w3.org/1999/xlink">
<g><path style="opacity:0.991" fill="#f3f3f3" d="M 35.55,-0.45 C 41.55,-0.45 47.55,-0.45 53.55,-0.45C 72.45,4.65 84.45,16.65 89.55,35.55C 89.55,41.55 89.55,47.55 89.55,53.55C 87.3776,62.6952 82.8776,70.4952 76.05,76.95C 77.1794,63.2507 71.1794,54.7007 58.05,51.3C 48.45,50.7 38.85,50.7 29.25,51.3C 17.1608,55.5119 11.1608,64.0119 12.75,76.95C 5.92243,70.4952 1.42243,62.6952 -0.45,53.55C -0.45,47.55 -0.45,41.55 -0.45,35.55C 4.65,16.65 16.65,4.65 35.55,-0.45 Z"/></g>
<g><path style="opacity:1" fill="#d3d3d3" d="M 40.05,13.05 C 49.282,11.8866 55.732,15.4866 59.4,23.85C 61.8319,33.3685 58.3819,40.8185 50.85,45.9C 41.04,49.0214 33.59,45.8714 29.7,36.45C 27.1042,25.7565 30.5542,17.3065 40.05,13.05 Z"/></g>
<g><path style="opacity:0.985" fill="#d3d3d3" d="M 76.95,76.95 C 70.725,83.2578 63.2347,87.4578 53.55,89.55C 47.55,89.55 41.55,89.55 35.55,89.55C 25.8653,87.4578 18.375,83.2578 12.15,76.95C 11.1608,64.0119 17.1608,55.5119 29.25,51.3C 38.85,50.7 48.45,50.7 58.05,51.3C 71.1794,54.7007 77.1794,63.2507 76.95,76.95 Z"/></g>
</svg>
